<?xml version="1.0" encoding="UTF-8" standalone="no"?>
<svg
   xml:space="preserve"
   width="56.7965mm"
   height="12.1361mm"
   version="1.1"
   style="shape-rendering:geometricPrecision; text-rendering:geometricPrecision; image-rendering:optimizeQuality;"
   viewBox="0 0 185.06 39.54"
   xmlns="http://www.w3.org/2000/svg">
   <defs>
    <style type="text/css">
      .text-part {fill:currentColor;fill-rule:nonzero}
      .accent-part {fill:#2563eb;fill-rule:nonzero}
    </style>
   </defs>
    <path
       class="text-part"
       d="M69.58 0.24l0 38.78 4.32 0 0 -34.63 1.38 0c0.44,0 0.8,0.03 1.08,0.08 0.28,0.06 0.49,0.18 0.64,0.36 0.15,0.18 0.26,0.42 0.33,0.69 0.07,0.28 0.11,0.64 0.11,1.08l0 8.42c0,0.55 -0.03,1.01 -0.08,1.36 -0.06,0.35 -0.16,0.62 -0.3,0.8 -0.15,0.18 -0.37,0.31 -0.67,0.39 -0.3,0.07 -0.66,0.11 -1.11,0.11l-1.99 0 0 4.16 2.11 0c0.41,0 0.74,0.03 1,0.08 0.26,0.06 0.47,0.17 0.64,0.33 0.17,0.17 0.28,0.41 0.33,0.72 0.06,0.31 0.08,0.69 0.08,1.14l0 14.9 4.32 0 0 -14.13c0,-1.07 -0.08,-1.98 -0.25,-2.71 -0.17,-0.74 -0.46,-1.32 -0.89,-1.75 -0.42,-0.42 -1,-0.72 -1.72,-0.89 -0.72,-0.17 -1.62,-0.23 -2.69,-0.19l0 0.5c1.03,0 1.92,-0.07 2.66,-0.22 0.74,-0.15 1.32,-0.42 1.74,-0.83 0.42,-0.41 0.72,-0.98 0.89,-1.72 0.17,-0.74 0.25,-1.64 0.25,-2.71l0 -7.76c0,-1.18 -0.11,-2.17 -0.33,-2.96 -0.22,-0.79 -0.58,-1.45 -1.08,-1.97 -0.5,-0.52 -1.14,-0.89 -1.91,-1.11 -0.78,-0.22 -1.75,-0.33 -2.94,-0.33l-5.93 0zm-11.91 25.93l0 3.99 6.59 0 0 -3.99 -6.59 0zm0.17 -25.93l-3.49 38.78 4.16 0 2.83 -37.4 -0.67 0 2.77 37.4 4.21 0 -3.49 -38.78 -6.32 0zm-15.96 0l0 38.78 4.32 0 0 -34.63 1.39 0c0.41,0 0.75,0.03 1.03,0.08 0.28,0.06 0.51,0.17 0.69,0.33 0.18,0.17 0.3,0.4 0.36,0.69 0.06,0.3 0.08,0.66 0.08,1.11l0 8.92c0,0.48 -0.03,0.89 -0.08,1.22 -0.06,0.33 -0.17,0.59 -0.33,0.78 -0.17,0.18 -0.39,0.31 -0.66,0.39 -0.28,0.07 -0.64,0.11 -1.08,0.11l-2.05 0 0 4.16 2.55 0c1.11,0 2.04,-0.12 2.8,-0.36 0.76,-0.24 1.37,-0.61 1.83,-1.11 0.46,-0.5 0.8,-1.15 1.03,-1.97 0.22,-0.81 0.33,-1.81 0.33,-2.99l0 -9.25c0,-1.14 -0.11,-2.11 -0.33,-2.91 -0.22,-0.79 -0.57,-1.44 -1.05,-1.94 -0.48,-0.5 -1.1,-0.86 -1.86,-1.08 -0.76,-0.22 -1.69,-0.33 -2.8,-0.33l-6.15 0zm-12.8 0l0.06 38.78 10.53 0 0 -4.16 -6.2 0 0 -34.62 -4.38 0zm-14.9 0l0 32.8c0,1.07 0.12,1.99 0.36,2.77 0.24,0.78 0.62,1.42 1.14,1.94 0.52,0.52 1.14,0.9 1.88,1.16 0.74,0.26 1.62,0.39 2.66,0.39l0.11 0c1,0 1.87,-0.13 2.63,-0.39 0.76,-0.26 1.39,-0.65 1.88,-1.16 0.5,-0.52 0.88,-1.16 1.14,-1.94 0.26,-0.78 0.39,-1.7 0.39,-2.77l0 -32.8 -4.32 0 0 32.85c0,0.33 -0.04,0.63 -0.11,0.89 -0.07,0.26 -0.18,0.47 -0.33,0.64 -0.15,0.17 -0.32,0.3 -0.53,0.39 -0.2,0.09 -0.45,0.14 -0.75,0.14l-0.11 0c-0.3,0 -0.55,-0.05 -0.78,-0.14 -0.22,-0.09 -0.4,-0.22 -0.53,-0.39 -0.13,-0.17 -0.23,-0.38 -0.3,-0.64 -0.07,-0.26 -0.11,-0.55 -0.11,-0.89l0 -32.85 -4.32 0zm-10.19 3.32l0 35.46 4.27 0 0.06 -35.46 -4.32 0zm-3.99 -3.32l0.06 4.16 12.19 0 0 -4.16 -12.24 0z" />
    <path
       class="accent-part"
       d="M98.46 0.28l0 4.18 -6.52 0 0 13.2 5.68 0 0 4.18 -5.68 0 0 13.26 6.79 0 0 4.18 -11.14 0 0 -38.99 10.86 0zm6.35 0l2.56 14.03 2.51 -14.03 4.18 0 -3.51 18.38 3.79 20.61 -4.29 0 -2.67 -15.59 -2.73 15.59 -4.23 0 3.73 -20.61 -3.45 -18.38 4.12 0zm17.71 0c2.23,0 3.79,0.47 4.68,1.42 0.89,0.95 1.34,2.57 1.34,4.87l0 9.36c0,2.34 -0.45,3.99 -1.34,4.96 -0.89,0.97 -2.43,1.45 -4.62,1.45l-1.95 0 0 16.93 -4.34 0 0 -38.99 6.24 0zm-0.45 17.88c0.85,0 1.42,-0.17 1.7,-0.5 0.28,-0.33 0.42,-1 0.42,-2l0 -8.97c0,-0.85 -0.15,-1.44 -0.45,-1.75 -0.3,-0.32 -0.85,-0.47 -1.67,-0.47l-1.45 0 0 13.7 1.45 0zm14.7 -17.88c2.3,0 3.92,0.48 4.85,1.45 0.93,0.97 1.39,2.62 1.39,4.96l0 7.8c0,1.67 -0.19,2.9 -0.56,3.68 -0.37,0.78 -1.1,1.32 -2.17,1.61 1.08,0.3 1.8,0.84 2.17,1.64 0.37,0.8 0.56,2.01 0.56,3.65l0 14.2 -4.34 0 0 -14.98c0,-0.93 -0.13,-1.54 -0.39,-1.84 -0.26,-0.3 -0.82,-0.45 -1.67,-0.45l-1.5 0 0 17.27 -4.34 0 0 -38.99 6.01 0zm-0.22 17.54c0.85,0 1.42,-0.17 1.7,-0.5 0.28,-0.33 0.42,-1.06 0.42,-2.17l0 -8.47c0,-0.85 -0.15,-1.44 -0.45,-1.75 -0.3,-0.32 -0.85,-0.47 -1.67,-0.47l-1.45 0 0 13.37 1.45 0zm20.11 -17.54l0 4.18 -6.52 0 0 13.2 5.68 0 0 4.18 -5.68 0 0 13.26 6.79 0 0 4.18 -11.14 0 0 -38.99 10.86 0zm8.13 -0.28c3.94,0 5.9,2.08 5.9,6.24l0 6.46 -4.29 0.11 0 -6.63c0,-1.34 -0.54,-2.01 -1.62,-2.01l-0.11 0c-1.08,0 -1.62,0.67 -1.62,2.01l0 4.01c0,0.74 0.03,1.38 0.08,1.92 0.06,0.54 0.15,1.03 0.28,1.48 0.13,0.45 0.32,0.86 0.58,1.25 0.26,0.39 0.58,0.81 0.95,1.25l2.67 3.17c0.63,0.71 1.15,1.37 1.56,2.01 0.41,0.63 0.74,1.28 1,1.95 0.26,0.67 0.44,1.4 0.53,2.2 0.09,0.8 0.14,1.7 0.14,2.7l0 5.12c0,4.2 -2.02,6.29 -6.07,6.29l-0.11 0c-4.05,0 -6.07,-2.1 -6.07,-6.29l0 -6.96 4.29 -0.11 0 7.13c0,1.37 0.58,2.06 1.73,2.06l0.11 0c1.19,0 1.78,-0.69 1.78,-2.06l0 -4.57c0,-1.56 -0.14,-2.79 -0.42,-3.7 -0.28,-0.91 -0.79,-1.79 -1.53,-2.65l-2.39 -2.84c-0.67,-0.78 -1.22,-1.49 -1.64,-2.14 -0.43,-0.65 -0.77,-1.32 -1.03,-2.01 -0.26,-0.69 -0.45,-1.41 -0.56,-2.17 -0.11,-0.76 -0.17,-1.62 -0.17,-2.59l0 -4.4c0,-4.16 1.97,-6.24 5.9,-6.24l0.11 0zm14.2 0c3.94,0 5.9,2.08 5.9,6.24l0 6.46 -4.29 0.11 0 -6.63c0,-1.34 -0.54,-2.01 -1.62,-2.01l-0.11 0c-1.08,0 -1.62,0.67 -1.62,2.01l0 4.01c0,0.74 0.03,1.38 0.08,1.92 0.06,0.54 0.15,1.03 0.28,1.48 0.13,0.45 0.32,0.86 0.58,1.25 0.26,0.39 0.58,0.81 0.95,1.25l2.67 3.17c0.63,0.71 1.15,1.37 1.56,2.01 0.41,0.63 0.74,1.28 1,1.95 0.26,0.67 0.44,1.4 0.53,2.2 0.09,0.8 0.14,1.7 0.14,2.7l0 5.12c0,4.2 -2.02,6.29 -6.07,6.29l-0.11 0c-4.05,0 -6.07,-2.1 -6.07,-6.29l0 -6.96 4.29 -0.11 0 7.13c0,1.37 0.58,2.06 1.73,2.06l0.11 0c1.19,0 1.78,-0.69 1.78,-2.06l0 -4.57c0,-1.56 -0.14,-2.79 -0.42,-3.7 -0.28,-0.91 -0.79,-1.79 -1.53,-2.65l-2.39 -2.84c-0.67,-0.78 -1.22,-1.49 -1.64,-2.14 -0.43,-0.65 -0.77,-1.32 -1.03,-2.01 -0.26,-0.69 -0.45,-1.41 -0.56,-2.17 -0.11,-0.76 -0.17,-1.62 -0.17,-2.59l0 -4.4c0,-4.16 1.97,-6.24 5.9,-6.24l0.11 0z" />
</svg>
